PathFileType	4	(X/Y/Z)	C:\Users\°ÂÌØÂü\Desktop\20210112\bx_y_0_1802-Unnamed.trc
DataRate	CameraRate	NumFrames	NumMarkers	Units	OrigDataRate	OrigDataStartFrame	OrigNumFrames
50.00	50.00	       4	0	mm	50.00	188	       375
Frame#	Time	
		

188	3.740	-462.58487	-80.33762	1061.03345	-700.55829	87.69776	204.58438	-757.47687	290.60815	727.21600	-680.54144	232.21036	740.51709	-521.92883	237.51183	473.63898	-601.98804	280.62231	556.71338	-541.59369	67.98555	536.83240	-571.97717	282.68359	519.50049	-531.87219	7.27571	460.39154	-628.24774	281.22198	463.63428				-967.93408	93.16836	859.16766	-662.26544	-59.78632	167.70782	-695.24585	148.59531	206.51869	-759.13770	218.75107	206.11888	-882.71478	296.14450	144.79083	-600.77814	21.02546	163.15695	-673.61755	169.87154	151.56177	-592.93463	221.48816	172.56136	-666.70239	294.59531	164.01755	-559.36938	263.05948	164.37926	-527.94458	304.49655	146.67267	-309.40244	100.62521	1327.13098	-467.15094	279.05710	1088.37805	-624.53918	-73.53599	161.61610	-517.74091	-72.73721	143.09418	-630.35358	302.81790	163.92982				-752.47638	4.24578	211.09521	-789.27716	66.47945	178.21806	-789.71844	163.63522	189.17000				-636.78003	-42.77203	455.75482	-875.80194	-78.50118	141.35402				-580.78119	-45.27184	551.82721	-567.40912	-42.71026	513.57166	-561.98474	-45.09175	163.12769							-680.42169	-11.37608	731.54797	-527.49927	177.48271	533.73877	-671.17133	61.44691	149.64169				-760.98297	-76.25189	704.73865	
189	3.760	-463.44608	-80.86419	1068.12073	-700.72839	87.64709	205.07590	-757.07306	290.10208	729.84644	-680.33954	231.89070	741.97339	-522.75146	237.19960	473.96375	-602.77362	279.95801	557.62347	-542.65607	67.73428	537.00842	-572.81329	281.80569	520.05701	-532.93512	6.91106	461.31134	-629.92432	280.12772	464.41022				-967.50867	93.29490	863.18140	-662.65900	-60.14466	167.27904	-695.86267	148.71187	206.56418	-759.19043	218.62631	206.27124	-882.58160	296.09494	144.74672	-600.87720	21.23663	163.24794	-673.61755	169.87154	151.56177	-593.03912	221.71695	172.55962	-666.45105	294.66452	163.95383	-559.66144	262.99997	164.76227	-528.07397	304.01920	146.39075	-311.22974	100.05370	1334.42761	-467.44614	278.48880	1094.45154	-624.75696	-73.99496	161.27113	-517.56909	-72.67384	143.15450	-630.41229	302.88519	163.92065				-752.65753	4.28662	210.86589	-789.25861	66.51369	178.27834	-789.71844	163.63522	189.17000				-637.50427	-43.31699	456.70712	-875.89313	-78.58107	141.15552				-581.72626	-45.61898	553.22815	-568.94806	-42.75423	513.80939	-561.65533	-45.20135	163.51884							-679.62274	-11.54095	733.04846	-528.61029	176.63745	534.45612	-671.60950	61.19523	150.07295				-760.93512	-76.09177	707.60632	
190	3.780	-464.23486	-81.07336	1075.17371	-701.11182	87.57574	205.39532	-756.67261	289.75726	732.71924	-679.16888	231.90782	744.63275	-523.68127	235.90427	474.45154	-603.82031	279.26611	559.41028	-543.78925	67.65961	538.22968	-573.99451	281.42209	521.00415	-534.26672	6.40097	461.55661	-630.40649	279.57550	464.74942				-966.63019	93.51030	868.07935	-662.79889	-60.18287	167.33331	-696.06549	148.77534	206.41194	-759.35486	218.65350	206.28194	-882.67664	296.04364	144.62473	-600.88275	20.94260	163.36325	-673.61755	169.87154	151.56177	-593.16125	221.55020	172.38554	-666.64819	294.59018	163.86780	-559.81110	262.98474	164.81618	-528.07770	304.24625	146.45256	-313.05203	99.75845	1342.15955	-468.11484	277.98367	1100.83398	-624.83105	-73.96136	161.05821	-517.74091	-72.73721	143.09418	-630.35358	302.81790	163.92982				-752.80103	4.32481	210.89308	-789.34296	66.46857	178.08472	-789.93665	163.66222	189.07127				-639.10596	-43.08968	456.99225	-876.00092	-78.54678	141.35789				-583.02954	-45.92477	554.01855	-570.46381	-43.05894	515.19739	-561.76788	-45.15668	163.43646							-679.36029	-12.25659	735.74402	-529.59668	175.96645	534.83710	-671.73328	61.06324	149.97435				-760.73663	-76.73224	710.80908	
191	3.800	-464.95224	-81.57986	1082.30420	-701.19476	87.26330	205.48041	-756.06476	289.51172	736.07190	-678.79370	231.38129	747.23694	-525.72211	235.00235	474.67767	-604.48798	278.83582	560.60785	-544.78961	67.03242	538.62329	-575.01196	280.68365	522.08612	-535.57526	5.91879	462.74561	-631.01068	279.19620	465.77350				-966.09241	93.25185	872.86377	-662.76215	-60.35003	167.02249	-695.86267	148.71187	206.56418	-759.52783	218.44879	206.40028	-882.74902	296.08859	144.55951	-600.92261	21.05469	163.30780	-673.20526	169.54968	151.76688	-593.19550	221.47681	172.60332	-666.54126	294.49011	163.95299	-559.90753	262.92645	164.76675	-528.00299	304.30740	146.63148	-315.24606	99.34785	1350.43262	-468.83182	277.56873	1107.75220	-624.84082	-74.11364	161.28001	-517.82477	-72.51702	142.96156	-630.54443	303.05313	164.10930				-752.84869	4.23124	210.98508	-789.31415	66.49354	178.15208	-790.09521	163.70132	188.99341				-639.87177	-43.45530	457.48727	-875.85132	-78.60582	141.07430				-584.71307	-45.89207	554.78577	-571.66235	-43.12319	515.71222	-562.22076	-45.01288	162.75702							-678.97864	-12.62879	737.87408	-530.59100	175.80754	535.90820	-671.73328	61.06324	149.97435				-760.80884	-77.00890	714.07214	
